{"title":"Strike.Back.S04E01.HDTV.Xvid-MrX","uid":8797832,"size":522989250,"categoryP":"video","categoryS":"tv_shows","magnet":"?xt=urn:btih:6d54ea113aec06ada73ba1119b3df331f4ee3419&amp;dn=Strike.Back.S04E01.HDTV.Xvid-MrX&amp;tr=udp%3A%2F%2Ftracker.openbittorrent.com%3A80&amp;tr=udp%3A%2F%2Fopen.demonii.com%3A1337&amp;tr=udp%3A%2F%2Ftracker.coppersurfer.tk%3A6969&amp;tr=udp%3A%2F%2Fexodus.desync.com%3A6969","seeders":1,"leechers":0,"uploader":"D.N.M","files":-1,"time":1376117249,"description":"   _____       ____  ___\n  /     ______   /  /\n /   /  _  __      /\n/    Y      | /     \n____|__  /__| /___/  \n        /           _/\n\n\nStrike.Back.S04E01.HDTV.Xvid-MrX\n &lt;a href=&quot;\nhttp://www.cinemax.com/strike-back&quot; rel=&quot;nofollow&quot; target=&quot;_NEW&quot;&gt;\nhttp://www.cinemax.com/strike-back&lt;/a&gt; &lt;a href=&quot;\nhttp://www.imdb.com/title/tt1492179/&quot; rel=&quot;nofollow&quot; target=&quot;_NEW&quot;&gt;\nhttp://www.imdb.com/title/tt1492179/&lt;/a&gt;\n\n\nSource :\nStrike.Back.S04E01.720p.HDTV.x264-EVOLVE\n\n\n\nGeneral\nComplete name                            : Strike.Back.S04E01.HDTV.Xvid-MrX.avi\nFormat                                   : AVI\nFormat/Info                              : Audio Video Interleave\nFile size                                : 498 MiB\nDuration                                 : 48mn 31s\nOverall bit rate mode                    : Variable\nOverall bit rate                         : 1 435 Kbps\n\nVideo\nID                                       : 0\nFormat                                   : MPEG-4 Visual\nFormat profile                           : Advanced Simple@L5\nFormat settings, BVOP                    : 1\nFormat settings, QPel                    : No\nFormat settings, GMC                     : No warppoints\nFormat settings, Matrix                  : Default (H.263)\nMuxing mode                              : Packed bitstream\nCodec ID                                 : XVID\nCodec ID/Hint                            : XviD\nDuration                                 : 48mn 31s\nBit rate                                 : 1 273 Kbps\nWidth                                    : 640 pixels\nHeight                                   : 352 pixels\nDisplay aspect ratio                     : 16:9\nFrame rate                               : 23.976 fps\nColor space                              : YUV\nChroma subsampling                       : 4:2:0\nBit depth                                : 8 bits\nScan type                                : Progressive\nCompression mode                         : Lossy\nBits/(Pixel*Frame)                       : 0.236\nStream size                              : 442 MiB (89%)\nWriting library                          : XviD 1.2.1 (UTC 2008-12-04)\n\nAudio\nID                                       : 1\nFormat                                   : MPEG Audio\nFormat version                           : Version 1\nFormat profile                           : Layer 3\nCodec ID                                 : 55\nCodec ID/Hint                            : MP3\nDuration                                 : 48mn 31s\nBit rate mode                            : Variable\nBit rate                                 : 149 Kbps\nMinimum bit rate                         : 32.0 Kbps\nChannel(s)                               : 2 channels\nSampling rate                            : 48.0 KHz\nCompression mode                         : Lossy\nStream size                              : 51.8 MiB (10%)\nAlignment                                : Aligned on interleaves\nInterleave, duration                     : 24 ms (0.58 video frame)\nInterleave, preload duration             : 236 ms\nTitle                                    : Strike.Back.S04E01\nWriting library                          : LAME3.99r\nEncoding settings                        : -m s -V 4 -q 0 -lowpass 17.5 --vbr-new -b 32","torrent":{"xt":"urn:btih:6d54ea113aec06ada73ba1119b3df331f4ee3419","amp;dn":"Strike.Back.S04E01.HDTV.Xvid-MrX","amp;tr":["udp%3A%2F%2Ftracker.openbittorrent.com%3A80","udp%3A%2F%2Fopen.demonii.com%3A1337","udp%3A%2F%2Ftracker.coppersurfer.tk%3A6969","udp%3A%2F%2Fexodus.desync.com%3A6969"],"infoHash":"6d54ea113aec06ada73ba1119b3df331f4ee3419","infoHashBuffer":{"type":"Buffer","data":[109,84,234,17,58,236,6,173,167,59,161,17,155,61,243,49,244,238,52,25]},"announce":[],"urlList":[]}}